<?xml version="1.0" encoding="iso-8859-1"?>
<!-- Generator: Adobe Illustrator 19.0.0, SVG Export Plug-In . SVG Version: 6.00 Build 0)  -->
<svg version="1.1" id="Layer_1" xmlns="http://www.w3.org/2000/svg" xmlns:xlink="http://www.w3.org/1999/xlink" x="0px" y="0px"
	 viewBox="0 0 512 512" style="enable-background:new 0 0 512 512;" xml:space="preserve">
<g>
	<g>
		<g>
			<path d="M490.667,85.333h-64v-64C426.667,9.551,417.115,0,405.333,0h-384C9.551,0,0,9.551,0,21.333V448
				c0,11.782,9.551,21.333,21.333,21.333h64v21.333c0,11.782,9.551,21.333,21.333,21.333h384c11.782,0,21.333-9.551,21.333-21.333
				v-384C512,94.885,502.449,85.333,490.667,85.333z M42.667,426.667v-384H384v42.667H106.667c-11.782,0-21.333,9.551-21.333,21.333
				v320H42.667z M469.333,469.333H128V448V128h277.333h64V469.333z"/>
			<path d="M389.176,208.158c-8.331-8.331-21.839-8.331-30.17,0l-60.339,60.339l-60.339-60.339c-8.331-8.331-21.839-8.331-30.17,0
				s-8.331,21.839,0,30.17l60.339,60.339l-60.339,60.339c-8.331,8.331-8.331,21.839,0,30.17s21.839,8.331,30.17,0l60.339-60.339
				l60.339,60.339c8.331,8.331,21.839,8.331,30.17,0s8.331-21.839,0-30.17l-60.339-60.339l60.339-60.339
				C397.507,229.996,397.507,216.489,389.176,208.158z"/>
		</g>
	</g>
</g>
<g>
</g>
<g>
</g>
<g>
</g>
<g>
</g>
<g>
</g>
<g>
</g>
<g>
</g>
<g>
</g>
<g>
</g>
<g>
</g>
<g>
</g>
<g>
</g>
<g>
</g>
<g>
</g>
<g>
</g>
</svg>
